<svg xmlns="http://www.w3.org/2000/svg" viewBox="0 0 24 24" fill="none">
<path d="M16 0H8C5.243 0 3 2.243 3 5V19C3 21.757 5.243 24 8 24H16C18.757 24 21 21.757 21 19V5C21 2.243 18.757 0 16 0ZM19 19C19 20.654 17.654 22 16 22H8C6.346 22 5 20.654 5 19V5C5 3.346 6.346 2 8 2H16C17.654 2 19 3.346 19 5V19ZM17 6C17 6.553 16.553 7 16 7H8C7.447 7 7 6.553 7 6C7 5.447 7.447 5 8 5H16C16.553 5 17 5.447 17 6ZM17 11C17 11.553 16.553 12 16 12H8C7.447 12 7 11.553 7 11C7 10.447 7.447 10 8 10H16C16.553 10 17 10.447 17 11ZM13 16C13 16.553 12.553 17 12 17H8C7.447 17 7 16.553 7 16C7 15.447 7.447 15 8 15H12C12.553 15 13 15.447 13 16Z" fill="currentColor"/>
</svg>
