<svg xmlns="http://www.w3.org/2000/svg" viewBox="0 0 16 16" fill="none">
<g clip-path="url(#clip0_422_6124)">
<path d="M15.1447 11.175C14.7072 11.175 14.351 11.5313 14.351 11.9688V13.2281L10.9447 9.82187C10.6354 9.5125 10.1322 9.5125 9.82285 9.82187C9.51348 10.1312 9.51348 10.6344 9.82285 10.9438L13.2291 14.35H11.9697C11.5322 14.35 11.176 14.7063 11.176 15.1438C11.176 15.5813 11.5322 15.9375 11.9697 15.9375H15.1447C15.5822 15.9375 15.9385 15.5813 15.9385 15.1438V11.9688C15.9385 11.5313 15.5822 11.175 15.1447 11.175Z" fill="currentColor"/>
<path d="M5.05625 9.81856L1.65 13.2248V11.9686C1.65 11.5311 1.29375 11.1748 0.85625 11.1748C0.41875 11.1748 0.0625 11.5311 0.0625 11.9686V15.1436C0.0625 15.5811 0.41875 15.9373 0.85625 15.9373H4.03125C4.46875 15.9373 4.825 15.5811 4.825 15.1436C4.825 14.7061 4.46875 14.3498 4.03125 14.3498H2.77187L6.17812 10.9436C6.4875 10.6342 6.4875 10.1311 6.17812 9.82168C5.86875 9.50918 5.36875 9.50918 5.05625 9.81856Z" fill="currentColor"/>
<path d="M15.1447 0.0625H11.9697C11.5322 0.0625 11.176 0.41875 11.176 0.85625C11.176 1.29375 11.5322 1.65 11.9697 1.65H13.2291L9.82285 5.05625C9.51348 5.36562 9.51348 5.86875 9.82285 6.17812C10.1322 6.4875 10.6354 6.4875 10.9447 6.17812L14.351 2.77187V4.03125C14.351 4.46875 14.7072 4.825 15.1447 4.825C15.5822 4.825 15.9385 4.46875 15.9385 4.03125V0.85625C15.9385 0.41875 15.5822 0.0625 15.1447 0.0625Z" fill="currentColor"/>
<path d="M2.77187 1.65H4.03125C4.46875 1.65 4.825 1.29375 4.825 0.85625C4.825 0.41875 4.46875 0.0625 4.03125 0.0625H0.85625C0.41875 0.0625 0.0625 0.41875 0.0625 0.85625V4.03125C0.0625 4.46875 0.41875 4.825 0.85625 4.825C1.29375 4.825 1.65 4.46875 1.65 4.03125V2.77187L5.05625 6.17812C5.36562 6.4875 5.86875 6.4875 6.17812 6.17812C6.4875 5.86875 6.4875 5.36562 6.17812 5.05625L2.77187 1.65Z" fill="currentColor"/>
</g>
<defs>
<clipPath id="clip0_422_6124">
<rect width="16" height="16" fill="white"/>
</clipPath>
</defs>
</svg>
